# xmcd
#
# Track frame offsets:
#	150
#	18225
#	41245
#	65950
#	85190
#	102628
#	117150
#	139643
#
# Disc length: 1998 seconds
#
# Revision: 1
# Processed by: cddbd v1.4PL0 Copyright (c) Steve Scherf et al.
# Submitted via: CDmax 1.8
#
DISCID=6f07cc08
DTITLE=Blue By Nature - Hard Daze
DYEAR=1998
DGENRE=Blues
TTITLE0=I'm So Tired
TTITLE1=Break Down
TTITLE2=Bad Spell
TTITLE3=Rain
TTITLE4=Travelin' Blues
TTITLE5=You're Gonna Need My Help
TTITLE6=Hard Day
TTITLE7=Salt Tears
EXTD=
EXTT0=
EXTT1=
EXTT2=
EXTT3=
EXTT4=
EXTT5=
EXTT6=
EXTT7=
PLAYORDER=
